<svg xmlns="http://www.w3.org/2000/svg" version="1.1" xmlns:xlink="http://www.w3.org/1999/xlink" xmlns:svgjs="http://svgjs.dev/svgjs" width="2000" height="272" viewBox="0 0 2000 272"><g transform="matrix(1,0,0,1,-1.2121212121212466,-1.144508405554177)"><svg viewBox="0 0 396 54" data-background-color="#ffffff" preserveAspectRatio="xMidYMid meet" height="272" width="2000" xmlns="http://www.w3.org/2000/svg" xmlns:xlink="http://www.w3.org/1999/xlink"><g id="tight-bounds" transform="matrix(1,0,0,1,0.2400000000000091,0.22721858051443178)"><svg viewBox="0 0 395.52 53.545562838971136" height="53.545562838971136" width="395.52"><g><svg viewBox="0 0 442.83977160743973 59.95172132433706" height="53.545562838971136" width="395.52"><g transform="matrix(1,0,0,1,47.31977160743969,0)"><svg viewBox="0 0 395.52000000000004 59.95172132433706" height="59.95172132433706" width="395.52000000000004"><g id="textblocktransform"><svg viewBox="0 0 395.52000000000004 59.95172132433706" height="59.95172132433706" width="395.52000000000004" id="textblock"><g><svg viewBox="0 0 395.52000000000004 59.95172132433706" height="59.95172132433706" width="395.52000000000004"><g transform="matrix(1,0,0,1,0,0)"><svg width="395.52000000000004" viewBox="2.6 -35.85 318.62 48.3" height="59.95172132433706" data-palette-color="#2a2325"><path d="M24.65 0.45L24.65 0.45Q23.75-1.15 23.13-2.27 22.5-3.4 22-4.45 21.5-5.5 20.85-6.65L20.85-6.65Q19.95-8.45 19.1-9.85 18.25-11.25 17.15-12.63 16.05-14 14.4-15.65L14.4-15.65 15.95-15.05Q14.6-15 13.53-15 12.45-15 11.4-15.05L11.4-15.05 11.45-17.65Q12.2-17.55 12.75-17.5 13.3-17.45 13.9-17.45L13.9-17.45Q16.45-17.45 18.53-18.23 20.6-19 21.83-20.6 23.05-22.2 23.05-24.75L23.05-24.75Q23.05-27.75 21.25-29.6 19.45-31.45 15.25-31.45L15.25-31.45Q14.2-31.45 13.35-31.35 12.5-31.25 11.55-31L11.55-31 11.8-31.8 11.8-6.9Q11.8-5.1 12.1-4.1 12.4-3.1 13.1-2.73 13.8-2.35 15-2.25L15-2.25Q15.15-1.8 15.2-1.15 15.25-0.5 15.25 0.15L15.25 0.15Q14.2 0.05 13 0.03 11.8 0 10.7 0 9.6 0 8.85 0L8.85 0Q7.45 0 5.65 0.03 3.85 0.05 2.6 0.15L2.6 0.15Q2.6-0.5 2.65-1.13 2.7-1.75 2.85-2.25L2.85-2.25Q4.2-2.35 4.95-2.75 5.7-3.15 6-4.1 6.3-5.05 6.3-6.8L6.3-6.8 6.3-27Q6.3-28.8 6-29.75 5.7-30.7 4.95-31.1 4.2-31.5 2.85-31.55L2.85-31.55Q2.7-32.1 2.65-32.73 2.6-33.35 2.6-33.9L2.6-33.9Q3.45-33.85 5.28-33.83 7.1-33.8 9-33.8L9-33.8Q10.95-33.8 13.18-33.85 15.4-33.9 17.65-33.9L17.65-33.9Q21.55-33.9 24-32.77 26.45-31.65 27.63-29.73 28.8-27.8 28.8-25.35L28.8-25.35Q28.8-22.9 27.68-20.95 26.55-19 24.53-17.73 22.5-16.45 19.75-15.9L19.75-15.9 20.15-16.5Q21.55-15.2 22.53-14 23.5-12.8 24.53-11.18 25.55-9.55 27-7.05L27-7.05Q27.95-5.35 28.75-4.38 29.55-3.4 30.58-2.95 31.6-2.5 33.3-2.4L33.3-2.4Q33.3-1.75 33.25-1.18 33.2-0.6 33.05 0L33.05 0Q30.85 0 28.65 0.08 26.45 0.15 24.65 0.45ZM47.4 0.45L47.4 0.45Q43.65 0.45 41.22-1.15 38.8-2.75 37.57-5.45 36.35-8.15 36.35-11.4L36.35-11.4Q36.35-14.7 37.65-17.4 38.95-20.1 41.37-21.73 43.8-23.35 47.1-23.35L47.1-23.35Q50.45-23.35 52.5-21.95 54.55-20.55 55.57-18.2 56.6-15.85 56.75-12.9L56.75-12.9Q56.55-11.75 55.9-11L55.9-11Q54.9-11 53.17-11 51.45-11 49.32-10.98 47.2-10.95 44.97-10.88 42.75-10.8 40.8-10.7L40.8-10.7 40.8-13.45 51.1-13.45Q51.1-16.75 49.97-18.75 48.85-20.75 46.75-20.75L46.75-20.75Q45.55-20.75 44.45-20 43.35-19.25 42.65-17.48 41.95-15.7 41.95-12.55L41.95-12.55Q41.95-10.05 42.6-7.78 43.25-5.5 44.8-4.08 46.35-2.65 49.2-2.65L49.2-2.65Q50.85-2.65 52.47-3.35 54.1-4.05 55.35-5.35L55.35-5.35Q55.75-5.15 56.12-4.6 56.5-4.05 56.55-3.55L56.55-3.55Q54.8-1.4 52.52-0.48 50.25 0.45 47.4 0.45ZM79.75-3.6L79.75-3.6Q78.4-1.6 76.35-0.58 74.3 0.45 71.45 0.45L71.45 0.45Q68.65 0.45 66.2-0.88 63.75-2.2 62.17-4.83 60.6-7.45 60.6-11.35L60.6-11.35Q60.6-14.35 61.85-17.1 63.1-19.85 65.5-21.6 67.9-23.35 71.35-23.35L71.35-23.35Q73.8-23.35 75.75-22.8 77.7-22.25 79.15-21.15L79.15-21.15Q78.95-19.7 78.85-18.28 78.75-16.85 78.75-15.3L78.75-15.3Q78.25-15.05 77.45-14.95 76.65-14.85 76-14.85L76-14.85Q75.75-17.75 74.45-19.28 73.15-20.8 71.05-20.8L71.05-20.8Q68.75-20.8 67.37-18.53 66-16.25 66-12.1L66-12.1Q66-9.7 66.8-7.53 67.6-5.35 69.17-4 70.75-2.65 73.05-2.65L73.05-2.65Q74.65-2.65 76.05-3.35 77.45-4.05 78.5-5.3L78.5-5.3Q78.95-5.05 79.27-4.6 79.6-4.15 79.75-3.6ZM107.09-14.95L107.09-6.6Q107.09-4.05 107.79-3.15 108.49-2.25 109.94-2.25L109.94-2.25Q110.09-1.75 110.17-1.2 110.24-0.65 110.24 0.15L110.24 0.15Q109.14 0.05 107.64 0.03 106.14 0 104.54 0L104.54 0Q103.54 0 102.34 0.03 101.14 0.05 100.09 0.08 99.04 0.1 98.24 0.15L98.24 0.15Q98.24-0.6 98.29-1.2 98.34-1.8 98.54-2.25L98.54-2.25Q100.24-2.25 101.04-3.2 101.84-4.15 101.84-6.7L101.84-6.7 101.84-13.65Q101.84-17.1 100.62-18.35 99.39-19.6 97.44-19.6L97.44-19.6Q96.14-19.6 94.89-18.75 93.64-17.9 92.82-16.1 91.99-14.3 91.99-11.35L91.99-11.35 91.99-6.6Q91.99-4.1 92.72-3.18 93.44-2.25 95.29-2.25L95.29-2.25Q95.44-1.75 95.52-1.18 95.59-0.6 95.59 0.15L95.59 0.15Q94.84 0.1 93.79 0.08 92.74 0.05 91.59 0.03 90.44 0 89.34 0L89.34 0Q88.34 0 87.14 0.03 85.94 0.05 84.87 0.08 83.79 0.1 83.04 0.15L83.04 0.15Q83.04-0.6 83.09-1.23 83.14-1.85 83.29-2.25L83.29-2.25Q85.24-2.25 85.99-3.18 86.74-4.1 86.74-6.6L86.74-6.6 86.74-15.8 91.99-21Q91.99-20.4 91.92-19.65 91.84-18.9 91.59-18.05L91.59-18.05Q91.79-18.4 91.99-18.8 92.19-19.2 92.54-19.65L92.54-19.65Q93.44-20.8 95.29-21.95 97.14-23.1 99.69-23.1L99.69-23.1Q101.69-23.1 103.37-22.33 105.04-21.55 106.07-19.78 107.09-18 107.09-14.95L107.09-14.95ZM86.74-26.9L86.74-28.45Q86.74-29.65 86.49-30.43 86.24-31.2 85.44-31.6 84.64-32 82.99-32L82.99-32Q82.99-32.6 83.09-33.15 83.19-33.7 83.44-34.15L83.44-34.15Q84.49-34.15 85.99-34.4 87.49-34.65 88.82-35.05 90.14-35.45 90.79-35.85L90.79-35.85Q91.29-35.65 91.64-35.15 91.99-34.65 91.99-33.65L91.99-33.65 91.99-26.9 86.74-26.9ZM86.74-14.9L86.74-28.7 91.99-28.7 91.99-21 86.74-14.9ZM129.44 0.45L129.44 0.45Q128.84 0.2 128.49-0.48 128.14-1.15 128.14-2.5L128.14-2.5Q128.14-3 128.22-3.68 128.29-4.35 128.44-4.95L128.44-4.95 128.59-4.95Q128.39-4 127.82-3.05 127.24-2.1 126.39-1.35L126.39-1.35Q125.49-0.6 124.14-0.13 122.79 0.35 120.94 0.35L120.94 0.35Q117.74 0.35 116.02-1.07 114.29-2.5 114.29-5.05L114.29-5.05Q114.29-7 115.22-8.38 116.14-9.75 117.62-10.68 119.09-11.6 120.84-12.15 122.59-12.7 124.32-13.03 126.04-13.35 127.44-13.55L127.44-13.55Q127.44-15.45 127.37-16.55 127.29-17.65 127.07-18.32 126.84-19 126.39-19.5L126.39-19.5Q125.79-20.2 125.04-20.55 124.29-20.9 123.39-20.9L123.39-20.9Q121.79-20.9 120.89-19.93 119.99-18.95 119.59-17.63 119.19-16.3 119.09-15.15L119.09-15.15Q118.39-15.15 117.49-15.25 116.59-15.35 116.04-15.55L116.04-15.55Q116.14-16.85 116.12-18.4 116.09-19.95 115.79-21.15L115.79-21.15Q117.89-22.2 120.29-22.78 122.69-23.35 124.74-23.35L124.74-23.35Q126.89-23.35 128.34-22.8 129.79-22.25 130.59-21.35L130.59-21.35Q131.84-20.15 132.29-18.18 132.74-16.2 132.74-12.8L132.74-12.8 132.74-7.65Q132.74-6.2 132.97-5.35 133.19-4.5 133.84-4.13 134.49-3.75 135.79-3.7L135.79-3.7Q135.84-3.1 135.77-2.4 135.69-1.7 135.44-1.1L135.44-1.1Q134.04-1.05 132.39-0.65 130.74-0.25 129.44 0.45ZM122.64-2.8L122.64-2.8Q123.74-2.8 124.84-3.53 125.94-4.25 126.69-5.73 127.44-7.2 127.44-9.6L127.44-9.6 127.44-11.35Q126.14-11.15 124.79-10.85 123.44-10.55 122.32-10 121.19-9.45 120.52-8.55 119.84-7.65 119.84-6.15L119.84-6.15Q119.84-4.4 120.69-3.6 121.54-2.8 122.64-2.8ZM148.39-11.35L148.39-7.75Q148.39-5.6 148.84-4.45 149.29-3.3 150.31-2.85 151.34-2.4 152.99-2.25L152.99-2.25Q153.14-1.8 153.21-1.2 153.29-0.6 153.29 0.15L153.29 0.15Q152.49 0.1 151.39 0.08 150.29 0.05 149.04 0.03 147.79 0 146.54 0L146.54 0Q144.64 0 142.59 0.03 140.54 0.05 139.39 0.15L139.39 0.15Q139.39-0.65 139.44-1.25 139.49-1.85 139.69-2.25L139.69-2.25Q141.04-2.35 141.76-2.75 142.49-3.15 142.79-4.1 143.09-5.05 143.09-6.8L143.09-6.8 143.09-11.35 148.39-11.35ZM147.49-15.3L148.39-14.65 148.39-10.6 143.09-10.6 143.09-16.15 148.39-21Q148.39-19.45 148.09-18.1 147.79-16.75 147.49-15.3L147.49-15.3ZM148.39-11.9L147.29-15Q147.79-16.35 148.11-17.32 148.44-18.3 148.79-18.9L148.79-18.9Q149.89-20.65 151.41-21.8 152.94-22.95 154.94-22.95L154.94-22.95Q156.84-22.95 158.39-21.75L158.39-21.75Q158.29-20.9 158.19-19.78 158.09-18.65 158.06-17.53 158.04-16.4 158.04-15.45L158.04-15.45Q157.49-15.25 156.59-15.1 155.69-14.95 154.79-14.95L154.79-14.95Q154.69-17.2 154.06-17.98 153.44-18.75 152.44-18.75L152.44-18.75Q151.64-18.75 150.66-17.8 149.69-16.85 149.04-15.3 148.39-13.75 148.39-11.9L148.39-11.9ZM148.39-21L143.09-10.6 143.09-15.8Q143.09-17.1 142.86-17.88 142.64-18.65 141.84-19.05 141.04-19.45 139.39-19.5L139.39-19.5Q139.39-20.1 139.49-20.65 139.59-21.2 139.84-21.65L139.84-21.65Q141.74-21.75 143.89-22.25 146.04-22.75 147.19-23.35L147.19-23.35Q147.69-23.15 148.04-22.65 148.39-22.15 148.39-21L148.39-21ZM170.24 12.45L170.24 12.45Q167.04 12.45 165.06 11.68 163.09 10.9 162.19 9.43 161.29 7.95 161.29 5.85L161.29 5.85Q161.29 3.95 162.34 2.55 163.39 1.15 165.29 0.4L165.29 0.4 168.04 0.7Q166.89 1.65 166.46 2.58 166.04 3.5 166.04 4.75L166.04 4.75Q166.04 7.15 167.29 8.38 168.54 9.6 171.54 9.6L171.54 9.6Q174.79 9.6 176.64 8.08 178.49 6.55 178.49 4.5L178.49 4.5Q178.49 3.35 177.91 2.68 177.34 2 175.69 1.68 174.04 1.35 170.84 1.35L170.84 1.35Q168.64 1.35 167.09 1.13 165.54 0.9 164.54 0.38 163.54-0.15 163.09-1.03 162.64-1.9 162.64-3.25L162.64-3.25Q162.64-5.05 163.64-6.6 164.64-8.15 166.14-9.35L166.14-9.35 168.44-8.05Q167.54-7.3 167.11-6.63 166.69-5.95 166.69-5.4L166.69-5.4Q166.69-4.5 167.26-4.08 167.84-3.65 169.46-3.53 171.09-3.4 174.09-3.4L174.09-3.4Q177.34-3.4 179.34-2.85 181.34-2.3 182.29-1.07 183.24 0.15 183.24 2.3L183.24 2.3Q183.24 4.1 182.29 5.93 181.34 7.75 179.61 9.2 177.89 10.65 175.49 11.55 173.09 12.45 170.24 12.45ZM171.59-6.95L171.59-6.95Q168.99-6.95 166.79-7.85 164.59-8.75 163.31-10.55 162.04-12.35 162.04-15.05L162.04-15.05Q162.04-17.45 163.09-19.3 164.14-21.15 166.24-22.25 168.34-23.35 171.39-23.35L171.39-23.35Q174.04-23.35 175.86-22.53 177.69-21.7 178.89-20.43 180.09-19.15 180.61-17.75 181.14-16.35 181.14-15.2L181.14-15.2Q181.14-12.95 180.06-11.05 178.99-9.15 176.86-8.05 174.74-6.95 171.59-6.95ZM172.19-9.45L172.19-9.45Q173.79-9.45 174.79-10.78 175.79-12.1 175.79-14.65L175.79-14.65Q175.79-17.3 174.56-19.15 173.34-21 171.09-21L171.09-21Q169.19-21 168.29-19.4 167.39-17.8 167.39-15.7L167.39-15.7Q167.39-12.7 168.66-11.08 169.94-9.45 172.19-9.45ZM183.69-19.6L183.69-19.6Q182.89-19.8 181.81-20 180.74-20.2 179.71-20.35 178.69-20.5 177.89-20.55L177.89-20.55 173.99-22.9 183.29-22.9Q183.54-22.2 183.61-21.33 183.69-20.45 183.69-19.6ZM198.43 0.45L198.43 0.45Q194.68 0.45 192.26-1.15 189.83-2.75 188.61-5.45 187.38-8.15 187.38-11.4L187.38-11.4Q187.38-14.7 188.68-17.4 189.98-20.1 192.41-21.73 194.83-23.35 198.13-23.35L198.13-23.35Q201.48-23.35 203.53-21.95 205.58-20.55 206.61-18.2 207.63-15.85 207.78-12.9L207.78-12.9Q207.58-11.75 206.93-11L206.93-11Q205.93-11 204.21-11 202.48-11 200.36-10.98 198.23-10.95 196.01-10.88 193.78-10.8 191.83-10.7L191.83-10.7 191.83-13.45 202.13-13.45Q202.13-16.75 201.01-18.75 199.88-20.75 197.78-20.75L197.78-20.75Q196.58-20.75 195.48-20 194.38-19.25 193.68-17.48 192.98-15.7 192.98-12.55L192.98-12.55Q192.98-10.05 193.63-7.78 194.28-5.5 195.83-4.08 197.38-2.65 200.23-2.65L200.23-2.65Q201.88-2.65 203.51-3.35 205.13-4.05 206.38-5.35L206.38-5.35Q206.78-5.15 207.16-4.6 207.53-4.05 207.58-3.55L207.58-3.55Q205.83-1.4 203.56-0.48 201.28 0.45 198.43 0.45ZM214.58-33.9L214.58-33.9Q215.33-33.9 216.86-33.88 218.38-33.85 220.18-33.83 221.98-33.8 223.71-33.8 225.43-33.8 226.68-33.8L226.68-33.8Q228.33-33.8 229.93-33.8 231.53-33.8 233.18-33.83 234.83-33.85 236.53-33.9L236.53-33.9Q236.78-33.55 236.96-33.05 237.13-32.55 237.13-31.95L237.13-31.95Q234.13-26.6 231.18-21.48 228.23-16.35 225.21-11.4 222.18-6.45 218.98-1.4L218.98-1.4 218.23-2.35 226.38-2.35Q229.33-2.35 231.01-2.83 232.68-3.3 233.56-4.67 234.43-6.05 234.98-8.8L234.98-8.8Q236.88-8.6 238.03-7.85L238.03-7.85Q237.78-6.75 237.56-5.38 237.33-4 237.23-2.58 237.13-1.15 237.08 0.15L237.08 0.15Q234.68 0.05 232.56 0.03 230.43 0 228.36 0 226.28 0 224.03 0L224.03 0Q220.68 0 217.63 0.03 214.58 0.05 212.93 0.15L212.93 0.15Q212.68-0.3 212.56-0.73 212.43-1.15 212.43-1.75L212.43-1.75Q214.78-5.6 217.08-9.4 219.38-13.2 221.63-16.95 223.88-20.7 226.11-24.5 228.33-28.3 230.48-32.2L230.48-32.2 231.43-31.55 223.73-31.55Q221.63-31.55 220.31-31.05 218.98-30.55 218.18-29.18 217.38-27.8 216.78-25L216.78-25Q216.03-25 215.08-25.1 214.13-25.2 213.58-25.55L213.58-25.55Q214.08-27.25 214.33-29.55 214.58-31.85 214.58-33.9ZM254.48 0.45L254.48 0.45Q250.93 0.45 248.3-1.03 245.68-2.5 244.25-5.15 242.83-7.8 242.83-11.4L242.83-11.4Q242.83-14.9 244.35-17.6 245.88-20.3 248.53-21.83 251.18-23.35 254.53-23.35L254.53-23.35Q258.28-23.35 260.88-21.85 263.48-20.35 264.83-17.7 266.18-15.05 266.18-11.5L266.18-11.5Q266.18-8.05 264.73-5.33 263.28-2.6 260.65-1.07 258.03 0.45 254.48 0.45ZM254.98-2.2L254.98-2.2Q257.78-2.2 259.13-4.58 260.48-6.95 260.48-10.75L260.48-10.75Q260.48-13.85 259.6-16.13 258.73-18.4 257.25-19.58 255.78-20.75 254.03-20.75L254.03-20.75Q251.28-20.75 249.93-18.45 248.58-16.15 248.58-12.55L248.58-12.55Q248.58-9.35 249.35-7 250.13-4.65 251.58-3.43 253.03-2.2 254.98-2.2ZM278.93-21L273.63-10.6 273.63-15.8Q273.63-17.1 273.4-17.88 273.18-18.65 272.38-19.05 271.58-19.45 269.93-19.5L269.93-19.5Q269.93-20.1 270.03-20.65 270.13-21.2 270.38-21.65L270.38-21.65Q272.28-21.75 274.43-22.25 276.58-22.75 277.73-23.35L277.73-23.35Q278.23-23.15 278.58-22.65 278.93-22.15 278.93-21L278.93-21ZM294.03-14.95L294.03-6.6Q294.03-4.05 294.7-3.15 295.38-2.25 296.88-2.25L296.88-2.25Q297.03-1.75 297.08-1.2 297.13-0.65 297.13 0.15L297.13 0.15Q296.03 0.05 294.53 0.03 293.03 0 291.48 0L291.48 0Q290.43 0 289.25 0.03 288.08 0.05 287.03 0.08 285.98 0.1 285.18 0.15L285.18 0.15Q285.18-0.6 285.23-1.2 285.28-1.8 285.48-2.25L285.48-2.25Q287.13-2.25 287.93-3.2 288.73-4.15 288.73-6.7L288.73-6.7 288.73-13.65Q288.73-17.1 287.53-18.35 286.33-19.6 284.33-19.6L284.33-19.6Q283.08-19.6 281.83-18.75 280.58-17.9 279.75-16.1 278.93-14.3 278.93-11.35L278.93-11.35 278.93-6.6Q278.93-4.1 279.65-3.18 280.38-2.25 282.18-2.25L282.18-2.25Q282.38-1.75 282.43-1.18 282.48-0.6 282.48 0.15L282.48 0.15Q281.78 0.1 280.73 0.08 279.68 0.05 278.53 0.03 277.38 0 276.28 0L276.28 0Q275.23 0 274.05 0.03 272.88 0.05 271.78 0.08 270.68 0.1 269.93 0.15L269.93 0.15Q269.93-0.6 270-1.23 270.08-1.85 270.23-2.25L270.23-2.25Q272.18-2.25 272.9-3.18 273.63-4.1 273.63-6.6L273.63-6.6 273.63-15.8 278.93-21Q278.93-20.4 278.85-19.65 278.78-18.9 278.53-18.05L278.53-18.05Q278.73-18.4 278.93-18.8 279.13-19.2 279.48-19.65L279.48-19.65Q280.38-20.8 282.23-21.95 284.08-23.1 286.63-23.1L286.63-23.1Q288.58-23.1 290.28-22.33 291.98-21.55 293-19.78 294.03-18 294.03-14.95L294.03-14.95ZM311.87 0.45L311.87 0.45Q308.12 0.45 305.7-1.15 303.27-2.75 302.05-5.45 300.82-8.15 300.82-11.4L300.82-11.4Q300.82-14.7 302.12-17.4 303.42-20.1 305.85-21.73 308.27-23.35 311.57-23.35L311.57-23.35Q314.92-23.35 316.97-21.95 319.02-20.55 320.05-18.2 321.07-15.85 321.22-12.9L321.22-12.9Q321.02-11.75 320.37-11L320.37-11Q319.37-11 317.65-11 315.92-11 313.8-10.98 311.67-10.95 309.45-10.88 307.22-10.8 305.27-10.7L305.27-10.7 305.27-13.45 315.57-13.45Q315.57-16.75 314.45-18.75 313.32-20.75 311.22-20.75L311.22-20.75Q310.02-20.75 308.92-20 307.82-19.25 307.12-17.48 306.42-15.7 306.42-12.55L306.42-12.55Q306.42-10.05 307.07-7.78 307.72-5.5 309.27-4.08 310.82-2.65 313.67-2.65L313.67-2.65Q315.32-2.65 316.95-3.35 318.57-4.05 319.82-5.35L319.82-5.35Q320.22-5.15 320.6-4.6 320.97-4.05 321.02-3.55L321.02-3.55Q319.27-1.4 317-0.48 314.72 0.45 311.87 0.45Z" opacity="1" transform="matrix(1,0,0,1,0,0)" fill="#2a2325" class="wordmark-text-0" data-fill-palette-color="primary" id="text-0"></path></svg></g></svg></g></svg></g></svg></g><g transform="matrix(1,0,0,1,0,2.634278634991361)"><svg viewBox="0 0 33.16660904407549 54.683164054354336" height="54.683164054354336" width="33.16660904407549"><g><svg xmlns="http://www.w3.org/2000/svg" xmlns:xlink="http://www.w3.org/1999/xlink" version="1.1" x="0" y="0" viewBox="33.941554115680795 23.624999999999957 32.086445884319254 52.90225424859379" enable-background="new 0 0 100 100" xml:space="preserve" height="54.683164054354336" width="33.16660904407549" class="icon-icon-0" data-fill-palette-color="accent" id="icon-0"><path fill-rule="evenodd" clip-rule="evenodd" d="M52.9 35.3c0.3 0.1 0.4 0.1 0.6-0.1 0.1-0.1 0.2-0.1 0.3-0.2 0.1-0.1 0.2-0.1 0.3-0.2 0.1-0.1 0.2-0.1 0.3-0.2 0.1-0.1 0.2-0.1 0.3-0.2 0.1-0.1 0.5-0.4 0.7-0.5 0.1-0.1 0.3-0.3 0.4-0.3 0.1 0 0.2-0.2 0.3-0.2 0.1 0 0.2-0.2 0.3-0.2 0.1 0 0.2-0.2 0.3-0.2 0 0 0.2-0.1 0.2-0.1 0 0 0.1-0.2 0.1-0.2 0.1 0 0.2 0 0.2 0 0 0 0.1-0.2 0.1-0.2 0.1 0 0.2 0 0.2 0 0 0 0.1-0.2 0.1-0.2 0.2-0.1 0.3-0.1 0.5-0.2 0.1 0 0-0.1 0.1-0.1 0 0 0.2-0.1 0.2-0.1 0 0 0.1-0.2 0.1-0.2 0.1 0 0.2 0 0.2 0 0 0 0.1-0.2 0.1-0.2 0.1 0 0.2 0 0.2 0 0 0 0.1-0.2 0.1-0.2 0.1 0 0.2 0 0.2 0 0 0 0.1-0.2 0.1-0.2 0.1 0 0.2 0 0.2 0 0 0 0.1-0.2 0.1-0.2 0.2-0.1 0.4-0.1 0.7-0.3 0 0 0.1-0.1 0.1-0.1 0.1-0.1 0.3 0 0.4-0.1 0 0 0.1-0.2 0.1-0.2 0 0 0.2 0 0.2 0 0.1-0.1 0.1-0.3 0.2-0.3 0.5-0.3 1-0.6 1.4-0.7 1-0.1 1.6 0.5 2.4 1.1 0.1 0.2-0.1 0.4 0 0.6 0.1 0.2 0.1 0.7 0 1.1 0 0 0 0.2 0 0.2-0.1 0.1-0.2 0.3-0.3 0.5 0 0.1 0 0.2-0.1 0.3 0 0.1-0.2 0.1-0.2 0.1-0.2 0.3-0.4 0.5-0.6 0.8-0.2 0.3-0.3 0.6-0.5 0.8-0.3 0.3-0.8 0.4-1.2 0.7-0.1 0.1-0.2 0.3-0.4 0.4-0.1 0.1-0.5 0.3-0.7 0.4-0.1 0 0 0.1-0.1 0.1-0.1 0-0.2 0.2-0.3 0.2-0.1 0-0.3 0.2-0.5 0.3-0.1 0.1-0.1 0.2-0.2 0.2 0 0-0.2 0-0.2 0 0 0-0.1 0.2-0.1 0.2-0.1 0.1-0.2 0-0.3 0.1-0.1 0.1-0.1 0.2-0.2 0.3-0.1 0.1-0.2 0-0.3 0.1-0.2 0.1-0.3 0.4-0.5 0.5-0.1 0.1-0.1 0.1-0.2 0.1-0.1 0-0.2 0.2-0.3 0.3 0 0-0.2 0-0.2 0 0 0-0.1 0.2-0.1 0.2 0 0-0.2 0-0.2 0 0 0-0.1 0.2-0.1 0.2 0 0-0.2 0-0.2 0 0 0-0.1 0.2-0.1 0.2-0.1 0.1-0.2 0-0.3 0.1-0.2 0.1-0.3 0.4-0.5 0.5-0.3 0.3-0.6 0.6-0.9 0.9-0.1 0.2-0.4 0.2-0.4 0.5 0.1 0.4 0.2 0.5 0.5 0.7 0.1 0 0.2 0.1 0.2 0.1 0.1 0.1 0.3 0.3 0.4 0.4 0.1 0.1 0.2 0 0.3 0.1 0.1 0 0.1 0.2 0.1 0.2 0.1 0.1 0.2 0 0.3 0.1 0.1 0 0.1 0.2 0.2 0.2 0.1 0.1 0.3 0.2 0.4 0.3 0.1 0.1 0.2 0 0.3 0.1 0.1 0.1 0.2 0.4 0.4 0.6 0.4 0.1 0.8 0.2 1.1 0.5 0.1 0.1 0.3 0.3 0.4 0.4 0.1 0.1 0.1 0.2 0.2 0.2 0 0 0.2 0 0.2 0 0.1 0.1 0.3 0.2 0.5 0.4 0.1 0.1 0.1 0.2 0.2 0.2 0 0 0.2 0 0.2 0 0.1 0.1 0.3 0.3 0.5 0.4 0.1 0.1 0.1 0.2 0.2 0.2 0 0 0.2 0 0.2 0 0.1 0.1 0.3 0.3 0.5 0.4 0.1 0 0.2 0 0.3 0.1 0.1 0.1 0.3 0.4 0.5 0.6 0.1 0 0.2 0.2 0.2 0.2 0 0 0.2 0 0.2 0 0 0 0 0.1 0 0.1 0.1 0.1 0.2 0 0.3 0.1 0.1 0 0.1 0.2 0.2 0.2 0.1 0.1 0.2 0 0.3 0.1 0.2 0.1 0.3 0.4 0.5 0.6 0.1 0.1 0.3 0.2 0.4 0.3 0.1 0.1 0 0.3 0.1 0.4 0 0 0.2 0.1 0.2 0.1 0 0.1 0 0.2 0 0.2 0 0 0.2 0.1 0.2 0.1 0.1 0.2 0 0.3 0.2 0.4 0.1 0.4-0.1 0.7-0.1 1 0.1 0 0.1 0.1 0.1 0.2 0 0.1 0.2 0.3 0.1 0.6-0.1 0.4-0.8 1-1.2 1.2-0.1 0.3-0.3 0.5-0.5 0.7-0.2 0.1-0.5 0.1-0.7 0.2 0.1 0-0.6 0.3-0.7 0.1-0.1-0.1-0.1-0.1-0.3-0.1 0 0-0.2 0-0.2 0-0.1-0.1-0.9-0.1-1.2-0.2 0 0 0-0.1-0.1-0.1-0.1 0-0.2-0.2-0.4-0.2 0 0-0.3-0.1-0.3-0.1-0.1-0.1-0.2-0.2-0.3-0.3-0.1 0-0.1-0.1-0.2-0.1 0 0-0.3-0.1-0.3-0.1C60 53.3 60 53.1 59.8 53c0 0-0.2-0.1-0.2-0.1-0.1-0.1-0.2-0.2-0.3-0.3 0 0-0.2 0-0.2 0 0 0-0.1-0.2-0.1-0.2 0 0-0.2 0-0.2 0-0.1-0.1-0.1-0.3-0.3-0.3 0 0-0.2-0.1-0.2-0.1-0.1-0.1-0.2-0.2-0.3-0.3-0.1 0-0.1-0.1-0.2-0.1-0.1-0.1-0.3-0.3-0.4-0.3-0.1 0-0.1-0.2-0.2-0.2-0.1 0-0.2 0-0.2 0-0.1-0.1-0.2-0.2-0.3-0.3-0.1 0-0.1-0.1-0.2-0.1 0 0-0.1-0.1-0.1-0.1-0.4-0.2-0.8-0.1-1.1-0.3-0.1 0 0-0.1-0.1-0.1-0.2 0-0.2-0.3-0.4-0.4 0 0-0.2 0-0.2 0-0.1-0.1-0.1-0.2-0.3-0.3-0.1-0.1-0.2-0.1-0.3-0.2-0.1-0.1-0.2-0.1-0.3-0.2-0.1-0.1-0.5-0.4-0.8-0.4-0.2 0.1-0.2 0.2-0.3 0.4-0.1 0.2-0.1 0.4-0.1 0.6-0.1 0.6 0 1.2-0.1 2 0 0.3-0.1 0.7-0.1 1.2 0 0.3 0.1 0.3 0 0.6 0 0.1 0.2 0.9 0 1C52 54.8 52 55.5 52 55.9c0 0.4 0 0.8-0.1 1.2 0 0.4-0.2 0.8-0.2 1.1-0.1 1 0 1.9 0 2.9 0 0.1 0 0.1 0 0.2-0.1 0.6 0 1.8 0 2.7 0 0.3-0.1 0.5-0.1 0.7 0 0.3 0.1 0.6 0.1 0.9 0.1 0.9 0.1 2 0.1 3 0 0.8 0 1.7-0.1 2.4-0.1 0.3 0 0.8-0.1 1.3 0 0.3-0.1 0.6-0.2 0.8-0.2 0.7-0.3 1.7-0.3 2.7-0.1 0.1-0.2 0.1-0.3 0.2 0 0-0.1 0.2-0.1 0.2-0.1 0.1-0.3 0-0.4 0.1-0.2 0.1-0.5 0.3-1 0.2-0.2 0-0.7-0.4-1.1-0.5-0.1 0-0.1 0-0.2 0 0 0-0.3-0.1-0.3-0.1-0.1-0.2-0.3-0.2-0.5-0.4-0.1-0.1-0.3-0.3-0.4-0.4-0.4-0.3-0.6-0.5-0.7-0.8-0.2-0.4-0.1-0.8-0.1-1.3-0.1-1.1-0.1-2.1-0.1-3.4 0 0 0.1 0 0.1-0.1 0 0-0.1 0-0.1-0.1 0-0.1 0-0.2 0-0.3 0-1.3 0-2.6 0.1-4 0-0.2 0.1-0.4 0.1-0.6 0.1-1.9-0.2-4.2 0-6.2 0.1-0.9 0.1-1.7 0.1-2.6 0-1.9-0.2-3.8 0-5.4 0.1-0.9 0.5-1.7 0-2.5-0.4-0.2-0.7 0.3-1 0.3-0.1 0-0.2 0.2-0.3 0.2-0.1 0-0.1 0.1-0.2 0.1-0.1 0-0.1 0.2-0.2 0.2 0 0-0.2 0-0.2 0 0 0 0 0.1 0 0.1-0.1 0-0.2 0-0.3 0.1 0 0-0.1 0.2-0.1 0.2-0.1 0.1-0.2 0-0.3 0.1 0 0-0.1 0.2-0.1 0.2-0.1 0.1-0.2 0-0.3 0.1-0.1 0.1-0.2 0.4-0.4 0.5-0.1 0.1-0.2 0-0.3 0.1 0 0-0.1 0.2-0.1 0.2-0.1 0.1-0.2 0-0.3 0.1-0.1 0.1-0.3 0.4-0.5 0.5-0.1 0.1-0.3 0.2-0.4 0.3-0.1 0.1-0.1 0.2-0.2 0.2 0 0-0.2 0-0.2 0C40.3 51.8 40.3 52 40 52c-0.2 0-0.2 0.3-0.4 0.3-0.1 0-0.1 0.2-0.2 0.2 0 0-0.2 0-0.2 0 0 0 0 0.1 0 0.1-0.3 0.2-0.6 0.1-0.9 0.2 0 0 0 0.1-0.1 0.1-0.2 0-0.8 0.4-1.2 0.3 0 0 0-0.1-0.1-0.1-0.2 0-0.3 0-0.5-0.1-0.1 0-0.3 0-0.4-0.1-0.1-0.1-0.3-0.3-0.4-0.4-0.1-0.1-0.3-0.3-0.4-0.5C35 52 35 52 35 51.8c0-0.1-0.1-0.1-0.1-0.1-0.1-0.4-0.1-1.5 0.2-2 0-0.1 0.1 0 0.1-0.1 0-0.1 0.3-0.4 0.4-0.5 0 0 0.2 0 0.2 0 0.1-0.1 0.1-0.2 0.3-0.3 0.2-0.1 0.6-0.3 0.8-0.5 0.3-0.3 0.4-0.6 0.8-0.8 0.1 0 0.1-0.1 0.2-0.1 0.1-0.1 0.2-0.1 0.3-0.2 0.1-0.1 0.2-0.1 0.3-0.2 0.1-0.1 0.3-0.1 0.3-0.1 0.1-0.1 0.1-0.3 0.3-0.3 0.1 0 0.2-0.2 0.3-0.2 0.1 0 0.2-0.2 0.3-0.2 0.1 0 0.3-0.3 0.5-0.4 0.2-0.2 0.5-0.3 0.8-0.5 0.3-0.2 0.9-0.6 1.4-1 0.1 0 0-0.1 0.1-0.1 0.1 0 0.2-0.2 0.4-0.2 0.1 0 0.2-0.2 0.3-0.2 0.1 0 0.3-0.1 0.4-0.2 0.6-0.4 1.6-0.7 1.1-1.6 0-0.1-0.1 0-0.1-0.1 0-0.2-0.6-0.6-0.8-0.8-0.2-0.2-0.4-0.4-0.6-0.6-0.3-0.2-0.6-0.2-0.8-0.4-0.1-0.3-0.5-0.6-0.7-0.9-0.1-0.1-0.2-0.3-0.3-0.5-0.1-0.1-0.4-0.4-0.6-0.5-0.1-0.1-0.5-0.4-0.7-0.5-0.1 0-0.2 0-0.3-0.1 0 0-0.1-0.2-0.1-0.2-0.1-0.1-0.2-0.1-0.4-0.2-0.1-0.1-0.2-0.1-0.3-0.2-0.1-0.1-0.1-0.1-0.2-0.2-0.2-0.1-0.4-0.3-0.6-0.4 0 0-0.1-0.2-0.1-0.2-0.1-0.1-0.2-0.1-0.4-0.2 0 0-0.1-0.2-0.1-0.2-0.1-0.1-0.2-0.1-0.4-0.2 0 0-0.1-0.2-0.1-0.2-0.1-0.1-0.3-0.1-0.4-0.2-0.1-0.1-0.3-0.3-0.4-0.4-0.1-0.1 0-0.2-0.1-0.3 0 0-0.2 0-0.2-0.1-0.1-0.2-0.2-0.3-0.3-0.5-0.1-0.1-0.3-0.2-0.4-0.3-0.1-0.1 0-0.2-0.1-0.3-0.1-0.1-0.5-0.3-0.6-0.5-0.1-0.1 0-0.2-0.1-0.3 0 0-0.2-0.1-0.2-0.1-0.1-0.1-0.1-0.2-0.1-0.3 0 0-0.1-0.4-0.1-0.4-0.3-0.2-0.1-2.1 0-2.5 0-0.1 0.1 0 0.1-0.1 0-0.1 0.2-0.2 0.3-0.3 0.1-0.1 0.2-0.2 0.4-0.3 0.1 0 0.1-0.1 0.2-0.1 0.1 0 0.4-0.3 0.6-0.3 0.1 0 0.2-0.2 0.3-0.2 0.1 0 0.3-0.2 0.6-0.2 1-0.1 1.7 0.6 2.8 0.4 0.1 0.1 0.2 0.2 0.3 0.3 0.5 0.4 1 1 1.6 1.5 0.3 0.2 0.5 0.5 0.8 0.7 0.1 0.1 0.2 0.1 0.3 0.2 0 0 0.4 0.4 0.5 0.4 0 0 0.2 0.1 0.2 0.1 0 0 0.1 0.2 0.1 0.2 0 0 0.2 0 0.2 0 0.1 0.1 0.1 0.2 0.2 0.3 0 0 0.2 0 0.2 0 0.1 0.1 0.1 0.2 0.3 0.3 0.2 0.1 0.5 0.3 0.7 0.5 0.1 0.1 0.2 0.1 0.3 0.2 0 0 0.1 0.2 0.1 0.2 0 0 0.2 0 0.2 0 0.1 0.1 0.1 0.2 0.2 0.3 0 0 0.2 0 0.2 0 0.1 0.1 0.4 0.5 0.7 0.5 0.4-0.5 0.3-1 0.4-1.7 0.1-1.7-0.1-4.1 0.2-5.7 0-0.2 0.1-0.5 0.2-0.7 0-0.1 0-0.3 0.1-0.4 0-0.1 0.2-0.1 0.2-0.2 0.2-0.3 0.5-0.6 0.8-0.8 0.1-0.1 0.2-0.3 0.3-0.3 0.1-0.1 0.4-0.1 0.6-0.1 0.1 0 0.2-0.2 0.2-0.2 0.1 0 0.2 0 0.3 0 0.3-0.1 0.5-0.1 1.1 0 0.3 0 0.5 0 0.7 0.1 0 0 0 0.1 0.1 0.1 0.1 0 0.9 0.7 0.9 0.9 0 0 0.1 0.1 0.1 0.2 0.1 0.2 0.1 0.3 0.2 0.5 0 0.1 0.1 0.2 0.1 0.3 0.1 0.3 0.3 1.7 0.2 2.4-0.1 0.5-0.1 1.7-0.1 2.6C52.8 32.1 52.8 33.8 52.9 35.3z" fill="#2cb3b2" data-fill-palette-color="accent"></path></svg></g></svg></g></svg></g><defs></defs></svg><rect width="395.52" height="53.545562838971136" fill="none" stroke="none" visibility="hidden"></rect></g></svg></g></svg>